<?xml version="1.0" encoding="UTF-8"?><svg xmlns="http://www.w3.org/2000/svg" xmlns:xlink="http://www.w3.org/1999/xlink" contentScriptType="text/ecmascript" fill="#494f56" width="402.7" zoomAndPan="magnify" contentStyleType="text/css" viewBox="0 0 402.7 499.3" height="499.3" preserveAspectRatio="xMidYMid meet" version="1"><path d="M384.99,195.72h-54.43v-66.51C330.56,57.96,272.6,0,201.35,0S72.14,57.96,72.14,129.21v66.51H17.71 C7.95,195.72,0,203.67,0,213.43v268.16c0,9.77,7.95,17.71,17.71,17.71h367.28c9.76,0,17.71-7.94,17.71-17.71V213.43 C402.7,203.67,394.75,195.72,384.99,195.72z M201.35,52.75c43,0,77.99,34.99,77.99,77.99v64.98H123.36v-64.98 C123.36,87.74,158.35,52.75,201.35,52.75z"/><path fill="#ffffff" d="M228.56,304.57c7.75,7.47,12.02,17.5,12.02,28.26c0,15.02-8.38,28.5-21.86,35.17 c-1.7,0.84-2.78,2.58-2.78,4.48v28.94h-29.18v-28.94c0-1.9-1.08-3.64-2.78-4.48c-14.41-7.13-22.94-22.11-21.75-38.18 c1.46-19.56,17.97-35.45,37.61-36.19C210.63,293.23,220.82,297.11,228.56,304.57z M392.7,213.43v268.16c0,4.26-3.46,7.71-7.71,7.71 H17.71c-4.25,0-7.71-3.45-7.71-7.71V213.43c0-4.25,3.46-7.71,7.71-7.71h59.43h41.22h165.98h41.22h59.43 C389.24,205.72,392.7,209.18,392.7,213.43z M250.58,332.83c0-13.5-5.36-26.09-15.08-35.46c-9.72-9.36-22.52-14.25-36.04-13.73 c-25.05,0.94-45.34,20.47-47.2,45.44c-1.42,19.09,8.12,36.96,24.5,46.39v28.31c0,4.22,3.43,7.64,7.64,7.64h33.9 c4.21,0,7.64-3.42,7.64-7.64v-28.31C241.22,366.69,250.58,350.63,250.58,332.83z M113.36,130.74c0-48.52,39.47-87.99,87.99-87.99 s87.99,39.47,87.99,87.99v64.98h31.22v-66.51C320.56,63.48,267.08,10,201.35,10S82.14,63.48,82.14,129.21v66.51h31.22V130.74z"/><path d="M384.99,195.72h-54.43v-66.51C330.56,57.96,272.6,0,201.35,0S72.14,57.96,72.14,129.21v66.51H17.71 C7.95,195.72,0,203.67,0,213.43v268.16c0,9.77,7.95,17.71,17.71,17.71h367.28c9.76,0,17.71-7.94,17.71-17.71V213.43 C402.7,203.67,394.75,195.72,384.99,195.72z M82.14,129.21C82.14,63.48,135.62,10,201.35,10s119.21,53.48,119.21,119.21v66.51 h-31.22v-64.98c0-48.52-39.47-87.99-87.99-87.99s-87.99,39.47-87.99,87.99v64.98H82.14V129.21z M279.34,130.74v64.98H123.36v-64.98 c0-43,34.99-77.99,77.99-77.99S279.34,87.74,279.34,130.74z M392.7,481.59c0,4.26-3.46,7.71-7.71,7.71H17.71 c-4.25,0-7.71-3.45-7.71-7.71V213.43c0-4.25,3.46-7.71,7.71-7.71h59.43h41.22h165.98h41.22h59.43c4.25,0,7.71,3.46,7.71,7.71V481.59 z M199.46,283.64c-25.05,0.94-45.34,20.47-47.2,45.44c-1.42,19.09,8.12,36.96,24.5,46.39v28.31c0,4.22,3.43,7.64,7.64,7.64h33.9 c4.21,0,7.64-3.42,7.64-7.64v-28.31c15.28-8.78,24.64-24.84,24.64-42.64c0-13.5-5.36-26.09-15.08-35.46 C225.78,288.01,212.98,283.12,199.46,283.64z M218.72,368c-1.7,0.84-2.78,2.58-2.78,4.48v28.94h-29.18v-28.94 c0-1.9-1.08-3.64-2.78-4.48c-14.41-7.13-22.94-22.11-21.75-38.18c1.46-19.56,17.97-35.45,37.61-36.19 c10.79-0.4,20.98,3.48,28.72,10.94c7.75,7.47,12.02,17.5,12.02,28.26C240.58,347.85,232.2,361.33,218.72,368z"/></svg>