<?xml version="1.0" encoding="UTF-8"?><svg xmlns="http://www.w3.org/2000/svg" xmlns:xlink="http://www.w3.org/1999/xlink" contentScriptType="text/ecmascript" fill="#494f56" width="430.96" zoomAndPan="magnify" contentStyleType="text/css" viewBox="0 0 430.96 498.93" height="498.93" preserveAspectRatio="xMidYMid meet" version="1"><path fill="#ffffff" d="M148.8,249.46c0,39.71-32.19,71.9-71.9,71.9S5,289.17,5,249.46s32.19-71.9,71.9-71.9 S148.8,209.76,148.8,249.46z M354.06,148.8c39.71,0,71.9-32.19,71.9-71.9S393.77,5,354.06,5c-39.71,0-71.9,32.19-71.9,71.9 S314.35,148.8,354.06,148.8z M354.06,350.13c-39.71,0-71.9,32.19-71.9,71.9s32.19,71.9,71.9,71.9c39.71,0,71.9-32.19,71.9-71.9 S393.77,350.13,354.06,350.13z"/><path d="M354.06,345.13c-39.05,0-71.37,29.26-76.24,67.01L136.1,298.49c11.05-13.32,17.7-30.41,17.7-49.02 c0-18.62-6.65-35.7-17.7-49.02L277.82,86.79c4.87,37.74,37.19,67.01,76.24,67.01c42.4,0,76.9-34.5,76.9-76.9S396.47,0,354.06,0 c-41.58,0-75.54,33.18-76.84,74.45L129.2,193.16c-13.73-12.77-32.12-20.59-52.3-20.59c-42.4,0-76.9,34.5-76.9,76.9 c0,42.4,34.5,76.9,76.9,76.9c20.18,0,38.57-7.83,52.3-20.59l148.02,118.71c1.3,41.27,35.26,74.45,76.84,74.45 c42.4,0,76.9-34.5,76.9-76.9S396.47,345.13,354.06,345.13z M354.06,10c36.89,0,66.9,30.01,66.9,66.9c0,36.89-30.01,66.9-66.9,66.9 s-66.9-30.01-66.9-66.9C287.16,40.01,317.17,10,354.06,10z M10,249.46c0-36.89,30.01-66.9,66.9-66.9c36.89,0,66.9,30.01,66.9,66.9 c0,36.89-30.01,66.9-66.9,66.9C40.01,316.36,10,286.35,10,249.46z M354.06,488.93c-36.89,0-66.9-30.01-66.9-66.9 s30.01-66.9,66.9-66.9s66.9,30.01,66.9,66.9S390.95,488.93,354.06,488.93z"/></svg>