<?xml version="1.0" encoding="UTF-8"?><svg xmlns="http://www.w3.org/2000/svg" xmlns:xlink="http://www.w3.org/1999/xlink" contentScriptType="text/ecmascript" fill="#494f56" width="499.42" zoomAndPan="magnify" contentStyleType="text/css" viewBox="0 0 499.42 408.26" height="408.26" preserveAspectRatio="xMidYMid meet" version="1"><path fill="#ffffff" d="M168.91,403.26c-6.42,0-12.83,0-19.25,0c-2.98-0.5-6-0.29-8.99-0.31c-12.43-0.08-24.65-1.85-36.81-4.18 c-12.49-2.39-24.75-5.65-36.8-9.72c-10.01-3.38-19.76-7.41-29.35-11.85c-10.68-4.95-20.96-10.62-30.94-16.84 c-0.21-0.13-0.44-0.24-0.64-0.4c-0.58-0.48-1.36-0.96-1.06-1.82c0.33-0.96,1.22-0.83,2.08-0.75c7.69,0.7,15.4,1.35,23.12,1.2 c14.34-0.29,28.56-1.78,42.59-4.93c17.21-3.87,33.64-9.86,49.27-18.01c10.09-5.27,19.69-11.34,28.87-18.38 c-11.55-0.6-22.61-2.81-33.17-7.12c-10.43-4.26-20-9.95-28.51-17.4c-7.96-6.97-14.85-14.83-20.36-23.84 c-3.71-6.07-6.87-12.42-9.12-19.19c-0.12-0.36-0.25-0.71-0.34-1.08c-0.45-1.92,0.3-2.79,2.23-2.54c2.68,0.34,5.34,0.78,8.04,0.97 c6.97,0.49,13.92,0.53,20.88-0.29c3.5-0.42,6.94-1.13,10.47-1.79c-10.51-2.47-20.23-6.69-29.36-12.27 c-7.22-4.41-13.81-9.65-19.65-15.76c-6.31-6.61-11.75-13.88-16.15-21.94c-6.17-11.28-10-23.29-11.58-36.02 c-0.48-3.86-0.9-7.74-0.85-11.63c0.04-2.57,1.06-3.22,3.35-2.04c6.33,3.27,12.88,5.96,19.76,7.85c6.5,1.79,13.09,3.02,20.02,3.39 c-5.15-3.9-9.98-7.91-14.3-12.5c-5.88-6.25-10.94-13.1-15.16-20.59c-5.93-10.52-9.73-21.77-11.59-33.68 c-0.58-3.72-0.8-7.48-1.05-11.24c-0.69-10.27,0.62-20.31,3.14-30.21c2.05-8.07,5.02-15.81,9.21-23.04c1.46-2.52,2.48-2.61,4.36-0.38 c6.54,7.8,13.31,15.4,20.67,22.44c11.22,10.74,23.12,20.67,35.9,29.54c12.52,8.7,25.64,16.34,39.37,22.97 c13.61,6.57,27.66,12,42.16,16.29c12.2,3.6,24.56,6.42,37.12,8.38c7.13,1.11,14.3,2.02,21.51,2.48c1.63,0.1,3.24,0.4,4.88,0.35 c1.26-0.03,1.9-0.41,1.61-1.81c-1.32-6.35-1.92-12.81-1.93-19.27c-0.01-4.12,0.14-8.28,0.64-12.4c1.49-12.16,4.93-23.72,10.53-34.62 c6.01-11.71,14.11-21.79,24.04-30.42c12.08-10.5,25.91-17.62,41.39-21.62c4.82-1.25,9.72-1.92,14.7-2c1.76-0.03,3.51-0.3,5.27-0.19 c3.23,0,6.45,0,9.68,0c12.73-0.24,24.77,2.69,36.34,7.85c11.49,5.13,21.75,12.02,30.51,21.08c1.33,1.38,2.63,1.78,4.52,1.37 c12.32-2.67,24.29-6.43,35.92-11.28c7.79-3.25,15.3-7.03,22.63-11.19c0.74-0.42,1.49-0.82,2.27-0.22c0.8,0.61,0.53,1.48,0.3,2.26 c-1.72,5.69-4.34,10.99-7.18,16.17c-3.26,5.93-7.15,11.5-11.56,16.63c-2.23,2.59-4.58,5.08-7.09,7.39c-2.56,2.34-5.33,4.38-8.1,6.45 c-2.44,1.82-4.89,3.63-7.39,5.38c5.21-1.05,10.47-1.81,15.67-2.94c12.13-2.65,23.93-6.32,35.37-11.16c1.01-0.43,2.29-1.41,3.11-0.42 c0.78,0.94-0.08,2.31-0.69,3.28c-2.21,3.51-4.83,6.74-7.36,10.02c-6.37,8.29-13.59,15.82-21.15,23.02 c-5.36,5.11-11.04,9.89-17.06,14.22c-1.58,1.14-2.29,2.42-2.25,4.4c0.11,4.84,0.04,9.68,0.04,14.52c0,10.12-0.91,20.17-2.17,30.21 c-1.91,15.12-4.99,29.99-9.24,44.6c-3.6,12.38-7.95,24.51-13.14,36.32c-7.58,17.24-16.55,33.73-27.17,49.29 c-6.52,9.55-13.62,18.66-21.23,27.38c-4.5,5.16-9.12,10.23-14.01,15c-10.9,10.61-22.46,20.46-34.94,29.21 c-12.53,8.8-25.68,16.53-39.51,23.08c-14.45,6.85-29.41,12.38-44.85,16.62c-12.69,3.48-25.57,5.96-38.58,7.81 c-7.03,1-14.11,1.25-21.2,1.55C176.03,403.08,172.46,402.82,168.91,403.26z"/><path d="M497.96,49.2c-1.2-1.45-3.9-3.52-8.6-1.15c-0.11,0.05-0.21,0.11-0.31,0.15c-9.28,3.93-19.1,7.17-29.26,9.67 c2.17-2.06,4.32-4.33,6.54-6.91c4.68-5.44,8.77-11.32,12.15-17.48c2.65-4.82,5.62-10.63,7.59-17.15c1.23-4.08-0.43-6.42-2.03-7.66 c-1.56-1.21-4.18-2.21-7.79-0.17c-7.65,4.35-14.87,7.92-22.08,10.93c-11.31,4.71-23.08,8.41-34.98,10.99 c-8.85-9.14-19.62-16.58-32.01-22.11c-13.03-5.82-25.63-8.53-38.38-8.29h-9.54c-1.33-0.07-2.59,0.02-3.7,0.09 c-0.6,0.04-1.19,0.09-1.79,0.09c-5.31,0.08-10.65,0.8-15.88,2.16c-16.35,4.23-30.96,11.86-43.42,22.69 c-10.58,9.19-19.06,19.93-25.21,31.91c-5.74,11.18-9.46,23.4-11.04,36.3c-0.47,3.84-0.69,7.98-0.68,13.02 c0.01,5.41,0.41,10.69,1.21,15.76c-0.15-0.01-0.3-0.02-0.45-0.03c-6.32-0.41-13.01-1.18-21.06-2.44 c-12.07-1.88-24.34-4.65-36.47-8.24c-14.14-4.18-28.07-9.56-41.41-15.99c-13.51-6.52-26.52-14.11-38.69-22.57 c-11.97-8.32-23.85-18.09-35.29-29.05C59.15,37.76,52.7,30.75,45.1,21.69c-0.84-1-3.07-3.67-6.59-3.36 c-3.52,0.3-5.26,3.31-5.92,4.44c-4.2,7.24-7.48,15.42-9.73,24.32c-2.88,11.35-3.95,21.74-3.28,31.77l0.07,1.03 c0.23,3.46,0.47,7.05,1.03,10.65c1.98,12.65,6.07,24.55,12.17,35.36c4.38,7.77,9.72,15.03,15.88,21.56c0.45,0.48,0.9,0.95,1.37,1.42 c-0.7-0.18-1.41-0.37-2.13-0.56c-6.23-1.71-12.38-4.16-18.79-7.47c-3.45-1.78-5.92-1.12-7.37-0.24c-1.46,0.88-3.21,2.74-3.27,6.65 c-0.06,4.31,0.41,8.45,0.89,12.32c1.66,13.37,5.75,26.09,12.15,37.8c4.47,8.18,10.16,15.91,16.92,22.99 c6.01,6.3,12.96,11.88,20.66,16.58c3.31,2.02,6.62,3.83,9.95,5.44c-2.85,0-5.83-0.12-8.98-0.34c-1.8-0.13-3.62-0.38-5.54-0.64 c-0.74-0.1-1.48-0.2-2.22-0.3c-3.51-0.45-5.48,1.09-6.35,2.06c-0.87,0.97-2.21,3.11-1.39,6.59c0.1,0.44,0.24,0.88,0.39,1.31 l0.07,0.2c2.22,6.68,5.36,13.3,9.6,20.23c5.52,9.02,12.7,17.43,21.33,24.99c8.6,7.53,18.66,13.68,29.91,18.27 c6.84,2.79,13.94,4.8,21.48,6.06c-5.63,3.74-11.46,7.18-17.6,10.39c-15.12,7.88-31.28,13.79-48.05,17.57 c-13.08,2.94-26.68,4.51-41.59,4.81c-7.35,0.15-14.87-0.47-22.66-1.19c-5.02-0.48-6.68,2.71-7.16,4.1c-0.53,1.53-0.92,4.5,2.45,7.2 l0.13,0.11c0.47,0.39,0.9,0.64,1.19,0.8c10.5,6.55,21.09,12.31,31.49,17.14c10.53,4.88,20.3,8.83,29.86,12.05 c12.37,4.17,24.97,7.5,37.45,9.89c15.05,2.88,26.69,4.2,37.72,4.27c0.77,0,1.54-0.01,2.31-0.01c2.09-0.03,4.07-0.05,5.87,0.25 c0.28,0.05,0.56,0.07,0.84,0.07h19.25c0.21,0,0.41-0.01,0.62-0.04c1.94-0.24,3.98-0.24,6.13-0.24c1.35,0,2.73,0,4.15-0.06l1.07-0.04 c6.73-0.28,13.7-0.56,20.62-1.55c14.32-2.04,27.15-4.63,39.2-7.94c15.71-4.31,31.08-10,45.67-16.92 c13.79-6.54,27.33-14.45,40.24-23.51c12.13-8.51,23.76-18.23,35.56-29.72c4.34-4.23,8.75-8.95,14.29-15.29 c7.84-8.98,15.1-18.35,21.59-27.85c10.43-15.27,19.73-32.13,27.62-50.1c5.13-11.68,9.63-24.11,13.36-36.93 c4.31-14.8,7.47-30.06,9.4-45.38c1.51-11.94,2.21-21.73,2.21-30.83c0-1.34,0.01-2.69,0.01-4.03c0.02-3.47,0.03-7.05-0.05-10.61 c0-0.04,0-0.07,0-0.1c0.04-0.04,0.1-0.08,0.17-0.13c6.02-4.34,11.93-9.27,17.59-14.66c9.01-8.6,15.9-16.09,21.66-23.59 c0.46-0.59,0.92-1.18,1.37-1.78c2.12-2.73,4.31-5.55,6.25-8.63C499.9,54.75,500.01,51.68,497.96,49.2z M482.09,62.64 c-5.44,7.08-12,14.22-20.63,22.45c-5.32,5.08-10.89,9.72-16.54,13.79c-2.95,2.13-4.4,5.01-4.32,8.58c0.08,3.42,0.06,6.93,0.05,10.33 c-0.01,1.36-0.01,2.71-0.01,4.07c0,8.67-0.68,18.07-2.13,29.58c-1.87,14.79-4.92,29.54-9.08,43.83 c-3.61,12.41-7.95,24.42-12.91,35.7c-7.65,17.4-16.64,33.72-26.73,48.48c-6.27,9.17-13.29,18.23-20.87,26.91 c-5.35,6.13-9.59,10.67-13.73,14.71c-11.41,11.12-22.64,20.5-34.32,28.7c-12.45,8.74-25.5,16.36-38.78,22.66 c-14.07,6.67-28.88,12.16-44.03,16.31c-11.64,3.19-24.06,5.71-37.96,7.68c-6.43,0.91-12.84,1.18-19.63,1.46l-1.08,0.04 c-1.21,0.05-2.43,0.05-3.73,0.05c-2.26,0-4.61,0-7.05,0.28h-18.55c-2.53-0.38-4.92-0.35-7.23-0.32c-0.71,0.01-1.42,0.02-2.12,0.01 c-10.4-0.07-21.48-1.33-35.91-4.09c-12.04-2.3-24.19-5.51-36.14-9.54c-9.21-3.11-18.65-6.92-28.85-11.65 c-5.94-2.75-11.95-5.83-17.97-9.19c2.84,0.12,5.68,0.17,8.53,0.11c15.59-0.31,29.84-1.96,43.58-5.05 c17.61-3.96,34.6-10.17,50.48-18.46c10.58-5.52,20.26-11.69,29.6-18.85c1.66-1.28,2.35-3.45,1.73-5.45c-0.62-2-2.43-3.4-4.52-3.51 c-11.55-0.59-21.86-2.8-31.54-6.75c-10.22-4.17-19.34-9.74-27.1-16.53c-7.98-6.99-14.33-14.41-19.4-22.69 c-3.08-5.02-5.5-9.83-7.36-14.61c1.16,0.15,2.35,0.27,3.56,0.36c8.09,0.57,15.23,0.47,21.82-0.32c3.11-0.37,6.16-0.96,9.11-1.52 l1.71-0.33c2.32-0.44,4.02-2.44,4.07-4.8c0.05-2.36-1.55-4.44-3.85-4.98c-9.62-2.26-18.75-6.08-27.9-11.67 c-6.95-4.24-13.22-9.27-18.63-14.95c-6.16-6.45-11.33-13.48-15.38-20.89c-5.8-10.6-9.5-22.12-11.01-34.24 c-0.27-2.14-0.53-4.36-0.68-6.59c5.6,2.64,11.08,4.68,16.65,6.21c7.41,2.04,14.31,3.2,21.08,3.56c2.18,0.13,4.21-1.21,4.96-3.28 c0.75-2.06,0.07-4.38-1.68-5.7c-5.86-4.43-10.07-8.12-13.68-11.94c-5.6-5.94-10.46-12.54-14.45-19.61c-5.51-9.77-9.21-20.53-11-32 c-0.49-3.16-0.71-6.37-0.93-9.77l-0.07-1.04c-0.6-8.96,0.38-18.33,2.99-28.64c1.73-6.81,4.1-13.13,7.08-18.84 c6.91,8.12,12.95,14.6,18.85,20.25c11.82,11.31,24.1,21.42,36.5,30.04c12.59,8.75,26.07,16.61,40.05,23.36 c13.82,6.67,28.26,12.25,42.92,16.58c12.56,3.71,25.26,6.58,37.77,8.53c8.35,1.3,15.33,2.11,21.96,2.53 c0.51,0.03,1.02,0.09,1.53,0.14c1.13,0.12,2.41,0.26,3.81,0.22c2.29-0.06,4.05-0.86,5.25-2.38c0.81-1.03,1.67-2.81,1.12-5.46 c-1.2-5.76-1.81-11.9-1.82-18.25c-0.01-4.61,0.19-8.36,0.61-11.78c1.44-11.73,4.81-22.82,10.01-32.95 c5.57-10.84,13.26-20.58,22.87-28.93c11.28-9.81,24.52-16.72,39.36-20.56c4.46-1.15,9.01-1.77,13.52-1.84 c0.78-0.01,1.56-0.06,2.33-0.12c0.93-0.06,1.81-0.13,2.55-0.08c0.1,0.01,0.21,0.01,0.31,0.01l9.77,0 c11.38-0.21,22.55,2.21,34.2,7.42c11.24,5.02,20.98,11.75,28.95,19.99c2.53,2.62,5.61,3.55,9.17,2.78 c12.52-2.71,24.9-6.6,36.79-11.55c5.09-2.12,10.18-4.51,15.39-7.22c-1.19,2.59-2.48,5.02-3.69,7.22 c-3.05,5.55-6.74,10.86-10.97,15.77c-2.29,2.66-4.47,4.94-6.68,6.96c-2.19,2.01-4.59,3.8-7.13,5.7l-0.58,0.43 c-2.16,1.61-4.71,3.5-7.26,5.28c-1.94,1.36-2.67,3.89-1.74,6.07c0.93,2.18,3.26,3.4,5.58,2.94c2.21-0.45,4.5-0.85,6.71-1.24 c2.95-0.52,6-1.06,9.03-1.72c9.09-1.98,17.96-4.53,26.48-7.61C482.81,61.71,482.45,62.18,482.09,62.64z"/></svg>