<?xml version="1.0" encoding="UTF-8"?><svg xmlns="http://www.w3.org/2000/svg" xmlns:xlink="http://www.w3.org/1999/xlink" contentScriptType="text/ecmascript" fill="#494f56" width="496.71" zoomAndPan="magnify" contentStyleType="text/css" viewBox="0 0 496.71 499.55" height="499.55" preserveAspectRatio="xMidYMid meet" version="1"><path d="M496.71,123.78v61.81c0,12.07-9.82,21.89-21.89,21.89h-7.23v267.26c0,13.68-11.13,24.81-24.81,24.81H289.4h-82.08H53.94 c-13.69,0-24.82-11.13-24.82-24.81V207.48h-7.23C9.82,207.48,0,197.66,0,185.59v-61.81c0-12.07,9.82-21.89,21.89-21.89h105.3 c-4.1-3.54-7.7-7.51-10.8-11.87c-11.89-16.76-15.66-40.96-9.17-58.85c8.9-24.57,32.35-32.1,49.72-31.08 c22.38,1.3,44.52,13.5,60.73,33.48c11.44,14.11,24.66,36.74,30.69,61.22c6.02-24.48,19.25-47.11,30.68-61.22 c16.22-19.98,38.35-32.18,60.74-33.48c17.37-1.02,40.81,6.51,49.71,31.08c6.49,17.89,2.72,42.09-9.17,58.85 c-3.09,4.36-6.7,8.32-10.79,11.87h105.29C486.89,101.89,496.71,111.71,496.71,123.78z"/><path fill="#ffffff" d="M39.12,207.48h168.2v282.07H53.94c-8.17,0-14.82-6.64-14.82-14.81V207.48z M217.32,489.55h62.08V207.48 h-62.08V489.55z M289.4,489.55h153.38c8.17,0,14.81-6.64,14.81-14.81V207.48H289.4V489.55z M474.82,111.89H289.4v85.59h178.19h7.23 c6.56,0,11.89-5.33,11.89-11.89v-61.81C486.71,117.22,481.38,111.89,474.82,111.89z M217.32,197.48h62.08v-85.59h-62.08V197.48z M10,123.78v61.81c0,6.56,5.34,11.89,11.89,11.89h7.23h178.2v-85.59H21.89C15.34,111.89,10,117.22,10,123.78z M352.05,101.89 c8.25-4.56,15.03-10.48,20.12-17.66c10.1-14.24,13.36-34.66,7.92-49.65c-7.03-19.4-25.82-25.32-39.73-24.51 c-19.59,1.14-39.1,12-53.55,29.8c-11.47,14.15-24.85,37.39-29.8,62.02h32.39H352.05z M209.9,39.87 c-14.44-17.8-33.96-28.66-53.54-29.8c-13.94-0.82-32.71,5.11-39.73,24.51c-5.44,14.99-2.19,35.41,7.92,49.65 c5.09,7.18,11.86,13.1,20.12,17.66h62.65h32.38C234.75,77.26,221.37,54.02,209.9,39.87z"/><path d="M474.82,101.89H369.53c4.09-3.55,7.7-7.51,10.79-11.87c11.89-16.76,15.66-40.96,9.17-58.85 c-8.9-24.57-32.34-32.1-49.71-31.08c-22.39,1.3-44.52,13.5-60.74,33.48c-11.43,14.11-24.66,36.74-30.68,61.22 c-6.03-24.48-19.25-47.11-30.69-61.22c-16.21-19.98-38.35-32.18-60.73-33.48c-17.37-1.02-40.82,6.51-49.72,31.08 c-6.49,17.89-2.72,42.09,9.17,58.85c3.1,4.36,6.7,8.33,10.8,11.87H21.89C9.82,101.89,0,111.71,0,123.78v61.81 c0,12.07,9.82,21.89,21.89,21.89h7.23v267.26c0,13.68,11.13,24.81,24.82,24.81h153.38h82.08h153.38c13.68,0,24.81-11.13,24.81-24.81 V207.48h7.23c12.07,0,21.89-9.82,21.89-21.89v-61.81C496.71,111.71,486.89,101.89,474.82,101.89z M207.32,489.55H53.94 c-8.17,0-14.82-6.64-14.82-14.81V207.48h168.2V489.55z M207.32,197.48H29.12h-7.23c-6.55,0-11.89-5.33-11.89-11.89v-61.81 c0-6.56,5.34-11.89,11.89-11.89h185.43V197.48z M144.67,101.89c-8.26-4.56-15.03-10.48-20.12-17.66 c-10.11-14.24-13.36-34.66-7.92-49.65c7.02-19.4,25.79-25.33,39.73-24.51c19.58,1.14,39.1,12,53.54,29.8 c11.47,14.15,24.85,37.39,29.8,62.02h-32.38H144.67z M279.4,489.55h-62.08V207.48h62.08V489.55z M279.4,197.48h-62.08v-85.59h62.08 V197.48z M257.01,101.89c4.95-24.63,18.33-47.87,29.8-62.02c14.45-17.8,33.96-28.66,53.55-29.8c13.91-0.81,32.7,5.11,39.73,24.51 c5.44,14.99,2.18,35.41-7.92,49.65c-5.09,7.18-11.87,13.1-20.12,17.66H289.4H257.01z M457.59,474.74c0,8.17-6.64,14.81-14.81,14.81 H289.4V207.48h168.19V474.74z M486.71,185.59c0,6.56-5.33,11.89-11.89,11.89h-7.23H289.4v-85.59h185.42 c6.56,0,11.89,5.33,11.89,11.89V185.59z"/></svg>